<svg width="96" height="56" viewBox="0 0 96 56" fill="none" xmlns="http://www.w3.org/2000/svg">
<mask id="mask0_6_13" style="mask-type:alpha" maskUnits="userSpaceOnUse" x="0" y="0" width="96" height="56">
<rect width="96" height="56" fill="#D9D9D9"/>
</mask>
<g mask="url(#mask0_6_13)">
<path d="M14.8534 38.9397C20.3432 38.9397 24.7935 34.4894 24.7935 28.9996C24.7935 23.5099 20.3432 19.0596 14.8534 19.0596C9.36366 19.0596 4.91333 23.5099 4.91333 28.9996C4.91333 34.4894 9.36366 38.9397 14.8534 38.9397Z" fill="#02AFD9"/>
<path fill-rule="evenodd" clip-rule="evenodd" d="M9.1086 31.2296C9.22198 32.8547 10.2424 34.102 12.1322 34.2154C13.9464 34.2909 15.7227 34.2909 17.5369 34.2154C19.1999 34.102 20.4471 32.8547 20.5605 31.2296C20.6361 30.3981 20.6739 29.5666 20.6361 28.7351C20.2203 26.4674 18.3306 26.3918 18.1794 26.3918H18.1416H11.792C11.5653 26.3918 11.3763 26.2028 11.3763 25.9761C11.3763 25.7493 11.5653 25.5981 11.792 25.5981H18.1794C18.1038 24.0863 16.4408 23.7839 15.6471 23.7462H15.2314C14.2109 23.7084 13.1527 23.7462 12.1322 23.8217C10.2047 23.9729 9.22198 25.1446 9.1086 26.8075C8.99521 28.2815 8.99521 29.7556 9.1086 31.2296ZM18.6707 30.3603V30.9272C18.6707 31.1162 18.5195 31.2674 18.2928 31.2674C18.1038 31.2674 17.9526 31.1162 17.9526 30.9272V30.3603C17.7636 30.2469 17.6503 30.0957 17.6503 29.8689C17.6503 29.5666 17.9526 29.302 18.2928 29.302C18.6329 29.302 18.9353 29.5666 18.9353 29.8689C18.9353 30.0957 18.8219 30.2469 18.6707 30.3603Z" fill="#FEFEFE"/>
<path fill-rule="evenodd" clip-rule="evenodd" d="M74.9096 28.0926V29.9067C74.9096 29.9067 74.2671 31.1162 72.1506 31.3807C70.0341 31.6831 70.0341 30.3603 70.1853 30.0201C70.3364 29.6799 70.8278 29.2264 72.6041 28.924C74.4561 28.6217 74.9096 28.0926 74.9096 28.0926ZM77.4041 26.354V33.3839H75.0986V32.25C74.3427 32.9303 73.2845 33.5728 71.8104 33.6484C67.1995 33.7618 65.4231 28.6595 71.0168 27.1477C72.3396 26.7697 73.6246 26.8831 74.3049 26.543C74.7585 26.2784 74.8718 25.8627 74.5695 25.4847C73.4356 23.9729 70.7144 24.5776 69.9585 26.6563L67.653 26.0894C68.2577 23.7839 70.1097 22.7635 72.3396 22.5367C74.7207 22.3099 77.4041 23.595 77.4041 26.354ZM33.7509 25.1068C32.0879 25.1068 30.7273 26.4674 30.7273 28.1681C30.7273 29.8311 32.0879 31.1917 33.7509 31.1917C35.4139 31.1917 36.7745 29.8311 36.7745 28.1681C36.7745 26.4674 35.4139 25.1068 33.7509 25.1068ZM39.7225 22.8769H36.7745V24.0107C35.8674 23.217 34.658 22.7257 33.2974 22.7257C30.3494 22.7257 27.9305 25.1823 27.9305 28.2059C27.9305 31.2673 30.3494 33.724 33.2974 33.724C34.658 33.724 35.8674 33.2327 36.7745 32.439V33.4594C36.7745 35.0846 35.6029 36.3697 33.9777 36.3697C32.6171 36.3697 31.521 36.1051 30.6139 35.0468L28.7242 36.7476C30.2738 38.4106 31.8234 38.9397 34.0155 38.9397C37.1903 38.9397 39.7225 36.7854 39.7225 33.1571V31.5697V22.8769ZM91.0859 22.6879H87.9867L84.8875 29.4532L81.3348 22.6879H78.1978L83.3379 32.3256L80.6167 37.9193H83.7537L91.0859 22.6879ZM60.5853 25.1068C62.2861 25.1068 63.6467 26.4674 63.6467 28.1681C63.6467 29.8311 62.2861 31.1917 60.5853 31.1917C58.9224 31.1917 57.5617 29.8311 57.5617 28.1681C57.5617 26.4674 58.9224 25.1068 60.5853 25.1068ZM54.6515 22.8769H57.5617V24.0107C58.5066 23.217 59.7161 22.7257 61.0389 22.7257C63.9869 22.7257 66.4058 25.1823 66.4058 28.2059C66.4058 31.2673 63.9869 33.724 61.0389 33.724C59.7161 33.724 58.5066 33.2327 57.5617 32.439V37.9193H54.6515V22.8769ZM46.8658 25.0312C48.7177 25.0312 50.1917 26.4674 50.1917 28.2059C50.1917 29.9823 48.7177 31.4185 46.8658 31.4185C45.0516 31.4185 43.5776 29.9823 43.5776 28.2059C43.5776 26.4674 45.0516 25.0312 46.8658 25.0312ZM46.8658 22.4989C50.1161 22.4989 52.7618 25.069 52.7618 28.2059C52.7618 31.3807 50.1161 33.9508 46.8658 33.9508C43.6154 33.9508 40.9697 31.3807 40.9697 28.2059C40.9697 25.069 43.6154 22.4989 46.8658 22.4989Z" fill="#1D1819"/>
</g>
</svg>
